<svg xmlns="http://www.w3.org/2000/svg" viewBox="0 0 512 512" fill="none">
  <defs>
    <linearGradient id="bg-grad" x1="0%" y1="0%" x2="100%" y2="100%">
      <stop offset="0%" stop-color="#4f46e5"/>
      <stop offset="100%" stop-color="#312e81"/>
    </linearGradient>
    <linearGradient id="shield-grad" x1="0%" y1="0%" x2="0%" y2="100%">
      <stop offset="0%" stop-color="#ffffff"/>
      <stop offset="100%" stop-color="#e0e7ff"/>
    </linearGradient>
  </defs>
  <rect width="512" height="512" rx="128" fill="url(#bg-grad)"/>
  
  <!-- Subtle tech circuit rings -->
  <circle cx="256" cy="256" r="180" stroke="#818cf8" stroke-width="3" stroke-dasharray="8 8" opacity="0.4"/>
  <circle cx="256" cy="256" r="210" stroke="#a5b4fc" stroke-width="2" opacity="0.2"/>
  
  <!-- Central Bug Tracker Icon -->
  <g transform="translate(136, 126) scale(10)" stroke="url(#shield-grad)" stroke-width="1.8" stroke-linecap="round" stroke-linejoin="round">
    <!-- Antennae -->
    <path d="m8 2 1.88 1.88"/>
    <path d="M14.12 3.88 16 2"/>
    <!-- Head & Body -->
    <rect width="8" height="14" x="8" y="6" rx="4" fill="#ffffff" fill-opacity="0.15"/>
    <path d="M9 7.13v-1a3.003 3.003 0 1 1 6 0v1"/>
    <path d="M12 20v-9"/>
    <!-- Legs -->
    <path d="M6.53 9C4.6 8.8 3 7.1 3 5"/>
    <path d="M6 13H2"/>
    <path d="M3 21c0-2.1 1.7-3.9 3.8-4"/>
    <path d="M20.97 5c0 2.1-1.6 3.8-3.5 4"/>
    <path d="M22 13h-4"/>
    <path d="M17.2 17c2.1.1 3.8 1.9 3.8 4"/>
  </g>
</svg>
